<?xml version="1.0" encoding="UTF-8" standalone="no"?>
<!DOCTYPE svg PUBLIC "-//W3C//DTD SVG 1.1//EN" "http://www.w3.org/Graphics/SVG/1.1/DTD/svg11.dtd">
<svg width="100%" height="100%" viewBox="0 0 539 511" version="1.1" xmlns="http://www.w3.org/2000/svg" xmlns:xlink="http://www.w3.org/1999/xlink" xml:space="preserve" xmlns:serif="http://www.serif.com/" style="fill-rule:evenodd;clip-rule:evenodd;stroke-linejoin:round;stroke-miterlimit:2;">
    <rect id="Artboard1" x="0" y="0" width="538.697" height="510.019" style="fill:none;"/>
    <g id="Artboard11" serif:id="Artboard1">
        <g transform="matrix(5.62314,0,0,5.62314,-100.092,-114.712)">
            <path d="M65.7,20.4C92,20.4 113.6,41.9 113.6,68.3L17.8,68.3C17.8,53.9 24.1,41.1 34.3,32.4L56.7,32.4C58.5,32.4 59.7,31.2 59.7,29.4C59.7,27.6 58.5,26.4 56.7,26.4L42.6,26.4C49.5,22.5 57.3,20.4 65.7,20.4ZM68.7,26.3C66.9,26.3 65.7,27.5 65.7,29.3C65.7,31.1 66.9,32.3 68.7,32.3L80.7,32.3C82.5,32.3 83.7,31.1 83.7,29.3C83.7,27.5 82.5,26.3 80.7,26.3L68.7,26.3ZM65.7,38.3C59.1,38.3 53.7,43.7 53.7,50.3C53.7,56.9 59.1,62.3 65.7,62.3C72.3,62.3 77.7,56.9 77.7,50.3C77.7,43.7 72.3,38.3 65.7,38.3ZM65.7,44.3C69,44.3 71.7,47 71.7,50.3C71.7,53.6 69,56.3 65.7,56.3C62.4,56.3 59.7,53.6 59.7,50.3C59.7,47 62.4,44.3 65.7,44.3ZM89.6,44.3C86.3,44.3 83.6,47 83.6,50.3C83.6,53.6 86.3,56.3 89.6,56.3C92.9,56.3 95.6,53.6 95.6,50.3C95.6,47 92.9,44.3 89.6,44.3Z" style="fill:white;fill-rule:nonzero;"/>
        </g>
        <g transform="matrix(5.62314,0,0,5.62314,-100.092,-114.712)">
            <path d="M32.5,111L27.7,97.5L25.6,97.5L25.6,111L17.8,111L17.8,78.7L23.5,73.3L39.7,73.3L39.7,97.2L35.2,97.2L40.3,111L32.5,111ZM31.6,90.4L31.6,80.5L25.6,80.5L25.6,90.4L31.6,90.4Z" style="fill:white;fill-rule:nonzero;"/>
            <path d="M64.2,111L43.2,111L43.2,98.2L56.4,86.2L56.4,80.5L51.3,80.5L51.3,84.4L43.5,84.4L43.5,78.4L48.6,73.3L63.9,73.3L63.9,89.2L50.7,100.9L50.7,103.9L63.9,103.9L63.9,111.1L64.2,111.1L64.2,111Z" style="fill:white;fill-rule:nonzero;"/>
            <path d="M89.3,80.5L82.1,80.5L82.1,110.7L74.3,110.7L74.3,80.5L66.8,80.5L66.8,73.3L89.2,73.3L89.2,80.5L89.3,80.5Z" style="fill:white;fill-rule:nonzero;"/>
            <path d="M113.6,111L92.6,111L92.6,98.2L105.8,86.2L105.8,80.5L100.7,80.5L100.7,84.4L93.2,84.4L93.2,78.4L98.3,73.3L113.6,73.3L113.6,89.2L100.4,100.9L100.4,103.9L113.6,103.9L113.6,111Z" style="fill:white;fill-rule:nonzero;"/>
        </g>
    </g>
</svg>
