<?xml version="1.0" encoding="UTF-8" standalone="no"?>
<!DOCTYPE svg PUBLIC "-//W3C//DTD SVG 1.1//EN" "http://www.w3.org/Graphics/SVG/1.1/DTD/svg11.dtd">
<svg width="100%" height="100%" viewBox="0 0 256 256" version="1.1" xmlns="http://www.w3.org/2000/svg" xmlns:xlink="http://www.w3.org/1999/xlink" xml:space="preserve" xmlns:serif="http://www.serif.com/" style="fill-rule:evenodd;clip-rule:evenodd;stroke-linejoin:round;stroke-miterlimit:2;">
    <g transform="matrix(1,0,0,1,-307,0)">
        <g id="logo" transform="matrix(0.32,0,0,0.426667,307,3.55271e-15)">
            <rect x="0" y="0" width="800" height="600" style="fill:none;"/>
            <g transform="matrix(5.625,0,0,4.21875,-203.615,0.357179)">
                <g>
                    <g transform="matrix(10.6506,0,0,12.2356,12.5362,-32.6522)">
                        <rect x="4.204" y="4.387" width="9.389" height="8.173" style="fill-opacity:0;"/>
                    </g>
                    <g transform="matrix(1,0,0,1,47.3093,10.2865)">
                        <path d="M10,60.47C10.08,46.09 16.3,32.56 27.11,23.3L50.57,23.3C52.61,23.3 53.97,21.93 53.97,19.9C53.97,17.86 52.6,16.5 50.57,16.5L36.83,16.5C43.93,12.68 51.72,10.74 60,10.74C87.48,10.74 109.86,33.03 110,60.48L10,60.48L10,60.47ZM60,29.06C52.93,29.06 47.17,34.81 47.17,41.89C47.17,48.96 52.93,54.72 60,54.72C67.07,54.72 72.83,48.97 72.83,41.89C72.83,34.82 67.07,29.06 60,29.06M85.13,35.34C81.52,35.34 78.58,38.28 78.58,41.89C78.58,45.5 81.52,48.44 85.13,48.44C88.74,48.44 91.68,45.5 91.68,41.89C91.68,38.28 88.74,35.34 85.13,35.34M63.14,16.5C61.1,16.5 59.74,17.87 59.74,19.9C59.74,21.94 61.11,23.3 63.14,23.3L75.71,23.3C77.75,23.3 79.11,21.93 79.11,19.9C79.11,17.86 77.74,16.5 75.71,16.5L63.14,16.5ZM60,47.91C56.68,47.91 53.98,45.21 53.98,41.89C53.98,38.57 56.68,35.87 60,35.87C63.32,35.87 66.02,38.57 66.02,41.89C66.02,45.21 63.32,47.91 60,47.91" style="fill-rule:nonzero;"/>
                    </g>
                    <g transform="matrix(1,0,0,1,47.3093,10.2865)">
                        <path d="M25.93,105.8L20.84,91L18.58,91L18.58,105.8L10,105.8L10,70.66L16.23,64.89L33.74,64.89L33.74,90.89L29.1,90.89L34.53,105.8L25.93,105.8ZM25.17,83.34L25.17,72.67L18.58,72.67L18.58,83.34L25.17,83.34Z" style="fill-rule:nonzero;"/>
                    </g>
                    <g transform="matrix(1,0,0,1,47.3093,10.2865)">
                        <path d="M60.54,105.8L37.7,105.8L37.7,91.88L51.96,78.92L51.96,72.67L46.3,72.67L46.3,77.06L38.12,77.06L38.12,70.55L43.78,64.89L60.53,64.89L60.53,82.09L46.3,94.77L46.3,98.05L60.53,98.05L60.53,105.8L60.54,105.8Z" style="fill-rule:nonzero;"/>
                    </g>
                    <g transform="matrix(1,0,0,1,47.3093,10.2865)">
                        <path d="M63.88,64.89L83.74,64.89L83.74,72.67L72.36,72.67L72.36,80.56L83.17,80.56L83.17,88.2L72.47,88.2L72.47,98.05L84.01,98.05L84.01,105.8L63.88,105.8L63.88,64.89Z" style="fill-rule:nonzero;"/>
                    </g>
                    <g transform="matrix(1,0,0,1,47.3093,10.2865)">
                        <path d="M110,105.8L87.16,105.8L87.16,91.88L101.42,78.92L101.42,72.67L95.76,72.67L95.76,77.06L87.58,77.06L87.58,70.55L93.24,64.89L110,64.89L110,82.09L95.77,94.77L95.77,98.05L110,98.05L110,105.8Z" style="fill-rule:nonzero;"/>
                    </g>
                </g>
            </g>
        </g>
    </g>
</svg>
